<svg id="header-bg" xmlns="http://www.w3.org/2000/svg" xmlns:xlink="http://www.w3.org/1999/xlink" viewBox="0 0 2048 720"><defs><linearGradient id="linear-gradient" x1="1024" y1="174" x2="1024" y2="774" gradientUnits="userSpaceOnUse"><stop offset="0" stop-color="#e3c797" stop-opacity="0"/><stop offset="1" stop-color="#e3c797"/></linearGradient></defs><title>header-bg</title><rect id="bg-color" width="2048" height="720" fill="#29a9c5"/><rect id="dawn-gradient" y="174" width="2048" height="600" fill="url(#linear-gradient)"/><g id="mountains"><path id="mountain-bg-1" d="M484,191l583,583H0V675Z" fill="#5bb1b9" opacity="0.65" style="isolation:isolate"/><path id="mountain-bg-2" d="M432,774,925,281l493,493" fill="#5bb1b9" opacity="0.65" style="isolation:isolate"/><path id="mountain-bg-3" d="M896,774l510-510,510,510" fill="#5bb1b9" opacity="0.65" style="isolation:isolate"/><path id="mountain-bg-4" d="M1692,54l356,356V774H975Z" fill="#5bb1b9" opacity="0.65" style="isolation:isolate"/></g><g id="stars"><ellipse cx="814.41" cy="214.62" rx="1.57" ry="1.58" fill="#fff"/><ellipse cx="581.62" cy="194.57" rx="1.79" ry="1.8" fill="#fff"/><ellipse cx="476.79" cy="360.53" rx="1.79" ry="1.8" fill="#fff"/><ellipse cx="976.65" cy="137.37" rx="2.35" ry="2.37" fill="#fff"/><ellipse cx="1347.65" cy="243.27" rx="1.79" ry="1.8" fill="#fff"/><ellipse cx="1520.26" cy="138.04" rx="1.79" ry="1.8" fill="#fff"/><ellipse cx="1507.12" cy="205.39" rx="1.79" ry="1.8" fill="#fff"/><ellipse cx="1754.1" cy="392.1" rx="0.9" ry="0.9" fill="#fff"/></g></svg>