<svg id="header-bg" xmlns="http://www.w3.org/2000/svg" xmlns:xlink="http://www.w3.org/1999/xlink" viewBox="0 0 2048 720"><defs><linearGradient id="linear-gradient" x1="1024" y1="174" x2="1024" y2="774" gradientUnits="userSpaceOnUse"><stop offset="0" stop-color="#e3c797" stop-opacity="0"/><stop offset="1" stop-color="#e3c797"/></linearGradient><linearGradient id="linear-gradient-2" x1="-2167.16" y1="296.94" x2="-2042.28" y2="296.94" gradientTransform="matrix(-1, 0, 0, 1, -846.75, 0)" gradientUnits="userSpaceOnUse"><stop offset="0" stop-color="#ffdb94"/><stop offset="1" stop-color="#fff" stop-opacity="0"/></linearGradient><linearGradient id="linear-gradient-3" x1="1230.53" y1="296.88" x2="1355.4" y2="296.88" gradientTransform="matrix(1, 0, 0, 1, 0, 0)" xlink:href="#linear-gradient-2"/><linearGradient id="linear-gradient-4" x1="-2154.78" y1="283.6" x2="-2052.03" y2="283.6" xlink:href="#linear-gradient-2"/><linearGradient id="linear-gradient-5" x1="1242.9" y1="283.54" x2="1345.65" y2="283.54" gradientTransform="matrix(1, 0, 0, 1, 0, 0)" xlink:href="#linear-gradient-2"/><linearGradient id="linear-gradient-6" x1="-2087.96" y1="290.71" x2="-1976.48" y2="290.71" xlink:href="#linear-gradient-2"/><linearGradient id="linear-gradient-7" x1="-2057.16" y1="399.14" x2="-1932.33" y2="399.14" gradientTransform="matrix(-1, 0, 0, 1, -846.75, 0)" gradientUnits="userSpaceOnUse"><stop offset="0" stop-color="#fff" stop-opacity="0"/><stop offset="1" stop-color="#ffdb94"/></linearGradient><linearGradient id="linear-gradient-8" x1="1309.72" y1="290.65" x2="1421.21" y2="290.65" gradientTransform="matrix(1, 0, 0, 1, 0, 0)" xlink:href="#linear-gradient-2"/><linearGradient id="linear-gradient-9" x1="1340.53" y1="399.08" x2="1465.35" y2="399.08" gradientTransform="matrix(1, 0, 0, 1, 0, 0)" xlink:href="#linear-gradient-7"/><linearGradient id="linear-gradient-10" x1="1319.85" y1="411.95" x2="1319.85" y2="548.64" gradientTransform="matrix(1, 0, 0, 1, 0, 0)" xlink:href="#linear-gradient-2"/><linearGradient id="linear-gradient-11" x1="1231.13" y1="374.98" x2="1231.13" y2="463.7" gradientTransform="matrix(1, 0, 0, 1, 0, 0)" xlink:href="#linear-gradient-2"/><linearGradient id="linear-gradient-12" x1="1173.36" y1="348.23" x2="1173.36" y2="389.95" gradientTransform="matrix(1, 0, 0, 1, 0, 0)" xlink:href="#linear-gradient-2"/><linearGradient id="linear-gradient-13" x1="1377.56" y1="-2042.84" x2="1377.56" y2="-2164.25" gradientTransform="matrix(1, 0, 0, -1, 0, -1736.01)" xlink:href="#linear-gradient-2"/><linearGradient id="linear-gradient-14" x1="1153.74" y1="335.26" x2="1153.74" y2="357.87" gradientTransform="matrix(1, 0, 0, 1, 0, 0)" xlink:href="#linear-gradient-2"/><linearGradient id="linear-gradient-15" x1="1397.18" y1="-2122.53" x2="1397.18" y2="-2159.2" gradientTransform="matrix(1, 0, 0, -1, 0, -1787.27)" xlink:href="#linear-gradient-2"/><linearGradient id="linear-gradient-16" x1="2052.53" y1="431.86" x2="2176.4" y2="431.86" gradientTransform="translate(-85.26 -55.19) scale(0.66 1)" gradientUnits="userSpaceOnUse"><stop offset="0" stop-color="#1c1c1c"/><stop offset="0.58" stop-color="#1a1a1a" stop-opacity="0.29"/><stop offset="1" stop-color="#191919" stop-opacity="0"/></linearGradient><linearGradient id="linear-gradient-17" x1="1266.63" y1="338.43" x2="1345.44" y2="417.24" gradientTransform="matrix(1, 0, 0, 1, 0, 0)" xlink:href="#linear-gradient-16"/></defs><title>header-bg-lg</title><rect id="bg-color" width="2048" height="720" fill="#29a9c5"/><rect id="dawn-gradient" y="174" width="2048" height="600" fill="url(#linear-gradient)"/><g id="mountains"><path id="mountain-bg-1" d="M484,191l583,583H0V675Z" fill="#5bb1b9" opacity="0.65" style="isolation:isolate"/><path id="mountain-bg-2" d="M432,774,925,281l493,493" fill="#5bb1b9" opacity="0.65" style="isolation:isolate"/><path id="mountain-bg-3" d="M896,774l510-510,510,510" fill="#5bb1b9" opacity="0.65" style="isolation:isolate"/><path id="mountain-bg-4" d="M1692,54l356,356V774H975Z" fill="#5bb1b9" opacity="0.65" style="isolation:isolate"/></g><g id="stars"><ellipse cx="814.41" cy="214.62" rx="1.57" ry="1.58" fill="#fff"/><ellipse cx="581.62" cy="194.57" rx="1.79" ry="1.8" fill="#fff"/><ellipse cx="476.79" cy="360.53" rx="1.79" ry="1.8" fill="#fff"/><ellipse cx="976.65" cy="137.37" rx="2.35" ry="2.37" fill="#fff"/><ellipse cx="1347.65" cy="243.27" rx="1.79" ry="1.8" fill="#fff"/><ellipse cx="1520.26" cy="138.04" rx="1.79" ry="1.8" fill="#fff"/><ellipse cx="1507.12" cy="205.39" rx="1.79" ry="1.8" fill="#fff"/><ellipse cx="1754.1" cy="392.1" rx="0.9" ry="0.9" fill="#fff"/></g><g id="link-icon-hero"><polyline points="1314.78 246.32 1261.23 246.32 1160 347.56 1213.55 347.56 1314.78 246.32" opacity="0.3" fill="url(#linear-gradient-2)"/><polyline points="1236.14 246.26 1289.7 246.26 1390.93 347.5 1337.37 347.5 1236.14 246.26" opacity="0.3" fill="url(#linear-gradient-3)"/><polygon points="1275.49 232.06 1232.46 232.06 1129.39 335.13 1172.42 335.13 1275.49 232.06" opacity="0.3" fill="url(#linear-gradient-4)"/><polygon points="1275.44 232 1318.47 232 1421.54 335.07 1378.51 335.07 1275.44 232" opacity="0.3" fill="url(#linear-gradient-5)"/><polygon points="1236.19 246.32 1186.78 246.32 1098 335.1 1147.48 335.04 1236.19 246.32" opacity="0.3" fill="url(#linear-gradient-6)"/><polygon points="1098 335.1 1226.07 463.17 1275.49 463.17 1147.42 335.1 1098 335.1" opacity="0.3" fill="url(#linear-gradient-7)"/><polygon points="1314.73 246.26 1364.15 246.26 1452.93 335.04 1403.45 334.98 1314.73 246.26" opacity="0.3" fill="url(#linear-gradient-8)"/><polygon points="1452.93 335.04 1324.86 463.11 1275.44 463.11 1403.51 335.04 1452.93 335.04" opacity="0.3" fill="url(#linear-gradient-9)"/><polygon points="1364.2 374.33 1364.2 433.29 1279.37 518.12 1275.49 522 1275.49 463.05 1364.2 374.33" opacity="0.3" fill="url(#linear-gradient-10)"/><polygon points="1275.49 522 1275.49 463.05 1190.66 378.22 1186.78 374.33 1186.78 433.29 1275.49 522" opacity="0.3" fill="url(#linear-gradient-11)"/><polygon points="1160 347.56 1160 390.27 1186.72 416.99 1186.72 374.33 1160 347.56" opacity="0.3" fill="url(#linear-gradient-12)"/><polygon points="1364.2 416.99 1364.2 374.28 1390.92 347.56 1390.92 390.22 1364.2 416.99" opacity="0.3" fill="url(#linear-gradient-13)"/><polygon points="1147.48 335.04 1160 347.56 1160 372.67 1147.48 360.68 1147.48 335.04" opacity="0.3" fill="url(#linear-gradient-14)"/><polygon points="1390.92 372.67 1403.44 360.15 1403.44 335.04 1390.92 347.03 1390.92 372.67" opacity="0.3" fill="url(#linear-gradient-15)"/><rect x="1193.83" y="265.89" width="163.33" height="163.33" transform="translate(619.34 -800.11) rotate(45)" fill="#ffd58a" opacity="0.35"/><rect x="1165.33" y="291.96" width="181.03" height="125.46" transform="translate(618.63 -784.13) rotate(45)" fill="#ffd58a" opacity="0.35"/><rect x="1232.41" y="264.17" width="125.46" height="181.03" transform="translate(630.14 -811.92) rotate(45)" fill="#ffd58a" opacity="0.35"/><rect x="1263.38" y="314.73" width="81.39" height="123.87" transform="translate(648.3 -811.8) rotate(45)" opacity="0.1" fill="url(#linear-gradient-16)"/><g opacity="0.9"><path d="M1337.43,347.56a61.86,61.86,0,1,1-2.35-17A61.93,61.93,0,0,1,1337.43,347.56Z" fill="#fff"/></g><path d="M1337.43,347.56a62,62,0,0,1-78.1,59.8l-21-21c-.29-.25-.59-.5-.86-.78a16.16,16.16,0,0,1,0-22.82l11.88-11.87a16.13,16.13,0,0,1,19.5-2.56l7.68-7.68a16.13,16.13,0,0,1,2.56-19.5l11.87-11.88a16.15,16.15,0,0,1,22.22-.54h0l.19.19c.13.12.27.23.4.36s.24.28.37.42l21,21A62.15,62.15,0,0,1,1337.43,347.56Z" opacity="0.24" fill="url(#linear-gradient-17)"/><path d="M1290.52,348.66a16.13,16.13,0,0,1-11.41-27.54l0,0c.49-.57,1.1-1.18,1.82-1.9l10-10a16.13,16.13,0,1,1,22.82,22.82l-10,10c-.71.71-1.33,1.33-1.9,1.82l0,0A16,16,0,0,1,1290.52,348.66ZM1287,325h0l-2,2a7.83,7.83,0,1,0,11.07,11.07l2-2,9.91-9.91a7.83,7.83,0,1,0-11.07-11.07Z" fill="#fff"/><path d="M1248.9,390.27a16.13,16.13,0,0,1-11.41-27.53h0l11.88-11.87a16.13,16.13,0,1,1,22.82,22.82l-11.87,11.87A16.08,16.08,0,0,1,1248.9,390.27Zm-5.53-21.66a7.83,7.83,0,1,0,11.07,11.07l11.87-11.87a7.83,7.83,0,1,0-11.07-11.07Z" fill="#fff"/><path d="M1261.25,366a4.15,4.15,0,0,1-2.94-7.09l28.49-28.49a4.15,4.15,0,1,1,5.87,5.87l-28.49,28.49A4.14,4.14,0,0,1,1261.25,366Z" fill="#fff"/></g></svg>