<svg xmlns="http://www.w3.org/2000/svg" viewBox="0 0 82.94 35.07"><title>logo</title><path d="M5.12,22.61l8.37-9.55,4.29-4.9a11.29,11.29,0,0,1,1.3-1.35,5.63,5.63,0,0,1,.72-.44s.52-.22.18-.09c.18-.07,1.18-.3.76-.24A3.39,3.39,0,0,1,23,6.38c1.81.93,3.46,3.42,4.92,5.08l2.54,2.9,9.09,10.37,8.3,9.47a3,3,0,1,0,4.26-4.26L35.18,10.65l-2.54-2.9c-1.73-2-3.37-4.26-5.48-5.83A9.89,9.89,0,0,0,14,3.38c-1,1.15-2.05,2.34-3.08,3.51L.85,18.35a3.09,3.09,0,0,0,0,4.26,3,3,0,0,0,4.26,0Z" fill="#fff"/><path d="M82.08,17.75,73.37,7.82c-1.26-1.43-2.5-2.88-3.77-4.3A10,10,0,0,0,58.75.59c-3,1.15-4.82,3.6-6.86,5.93L49,9.82l-9.3,10.6-8.34,9.53a3.09,3.09,0,0,0,0,4.26,3,3,0,0,0,4.26,0l16.1-18.37c2.35-2.68,4.68-5.38,7.05-8,.26-.29.73-.79.83-.87a7,7,0,0,1,1.1-.65c-.32.13.67-.19.56-.16L61.59,6q-.33,0,0,0c.27,0,.53,0,.8,0,.08,0,.57.09.15,0,.11,0,1.11.32.82.2a4.57,4.57,0,0,1,1.87,1.41c1,1.13,2,2.3,3,3.45L77.82,22a3,3,0,1,0,4.26-4.26Z" fill="#fff"/><path d="M15.27,34.2Q24.69,23.46,34.1,12.72l3.15-3.59a11,11,0,0,1,2.87-2.75,6.07,6.07,0,0,1,1-.34c-.37.06.63,0,.55,0s1,.11.47,0a4.42,4.42,0,0,1,2.68,1.6c.78.86,1.53,1.74,2.29,2.61l8.73,10L67.64,33.62a3,3,0,0,0,4.26-4.26L52.41,7.13C49.65,4,47.18.57,42.66.06a9.91,9.91,0,0,0-8.11,3c-.91.95-1.75,2-2.61,3L23,16.22,11,29.93a3.09,3.09,0,0,0,0,4.26,3,3,0,0,0,4.26,0Z" fill="#fff"/><path d="M58.13,13.65l-2,2.29-2,2.28-.46-.52-1.8-2,2-2.27,2-2.3Z" fill="#c6c6c6"/><path d="M48,25.25l-2,2.29-2,2.28-.46-.52-1.8-2,2-2.27,2-2.3Z" fill="#c6c6c6"/><path d="M37.79,13.63l-2,2.29-2,2.28-.46-.52-1.8-2,2-2.27,2-2.3Z" fill="#c6c6c6"/></svg>