<svg xmlns="http://www.w3.org/2000/svg" viewBox="0 0 99.58 8.4"><title>logo-type</title><path d="M1.61,0V8.4H0V0Z" fill="#fff"/><path d="M11.2,0l4.33,5.75V0h1.56V8.4H15.56L11.24,2.66V8.4H9.67V0Z" fill="#fff"/><path d="M25.87,0l2.47,6.61L30.84,0h1.66L29.13,8.4H27.47L24.14,0Z" fill="#fff"/><path d="M44.42,6.62h-4.1L39.58,8.4H37.91L41.59,0h1.67l3.63,8.4H45.17Zm-.58-1.38L42.38,1.72,40.9,5.24Z" fill="#fff"/><path d="M55.52,0V6.94h3.62V8.4H53.92V0Z" fill="#fff"/><path d="M68,0V6.94h3.62V8.4H66.41V0Z" fill="#fff"/><path d="M85.05,0V1.4H80.51V3.48h4.08v1.4H80.51V7H85.2V8.4H78.9V0Z" fill="#fff"/><path d="M96.53,5.65V8.4H94.92V5.71L91.79,0h1.63l2.29,3.95L98,0h1.62Z" fill="#fff"/></svg>