<?xml version="1.0" encoding="utf-8"?>
<!-- Generator: Adobe Illustrator 19.0.0, SVG Export Plug-In . SVG Version: 6.00 Build 0)  -->
<svg version="1.1" xmlns="http://www.w3.org/2000/svg" xmlns:xlink="http://www.w3.org/1999/xlink" x="0px" y="0px"
	 viewBox="340.3 251.3 100.7 66.9" style="enable-background:new 340.3 251.3 100.7 66.9;" xml:space="preserve">
<style type="text/css">
	.st0{fill:#FFFFFF;}
	.st1{fill:#C6C6C6;}
	.st2{fill:#D60A24;}
	.st3{fill:#F4F2EA;}
</style>
<g id="Laag_1">
	<g id="Laag_1_1_">
		<path class="st0" d="M363.1,305.6l8.4-9.5l4.3-4.9c0.4-0.5,0.8-0.9,1.3-1.4c0.2-0.2,0.5-0.3,0.7-0.4c0,0,0.5-0.2,0.2-0.1
			c0.2-0.1,1.2-0.3,0.8-0.2c0.8-0.2,1.6,0,2.3,0.3c1.8,0.9,3.5,3.4,4.9,5.1l2.5,2.9l9.1,10.4l8.3,9.5c1.2,1.2,3.1,1.2,4.3,0
			c1.2-1.2,1.2-3.1,0-4.3l-16.9-19.3l-2.5-2.9c-1.7-2-3.4-4.3-5.5-5.8c-4.1-3-9.8-2.3-13.2,1.5c-1,1.1-2,2.3-3.1,3.5l-10.1,11.5
			c-1.1,1.2-1.1,3.1,0,4.3C360,306.8,361.9,306.8,363.1,305.6L363.1,305.6L363.1,305.6z"/>
		<path class="st0" d="M440.1,300.8l-8.7-9.9c-1.3-1.4-2.5-2.9-3.8-4.3c-2.7-3.1-7-4.3-10.9-2.9c-3,1.1-4.8,3.6-6.9,5.9l-2.9,3.3
			l-9.3,10.6l-8.3,9.5c-1.1,1.2-1.1,3.1,0,4.3c1.2,1.2,3.1,1.2,4.2,0l0,0l16.1-18.4c2.4-2.7,4.7-5.4,7-8c0.3-0.3,0.7-0.8,0.8-0.9
			c0.3-0.2,0.7-0.5,1.1-0.6c-0.3,0.1,0.7-0.2,0.6-0.2l0.3-0.2c-0.2,0-0.2,0,0,0c0.3,0,0.5,0,0.8,0c0.1,0,0.6,0.1,0.1,0
			c0.1,0,1.1,0.3,0.8,0.2c0.7,0.3,1.4,0.8,1.9,1.4c1,1.1,2,2.3,3,3.5l9.6,10.9c1.2,1.2,3.1,1.2,4.3,0
			C441.3,303.8,441.3,301.9,440.1,300.8L440.1,300.8z"/>
		<path class="st0" d="M373.3,317.2c6.3-7.2,12.6-14.3,18.8-21.5l3.1-3.6c0.8-1.1,1.8-2,2.9-2.8c0.3-0.1,0.7-0.3,1-0.3
			c-0.4,0.1,0.6,0,0.5,0s1,0.1,0.5,0c1.1,0.2,2,0.8,2.7,1.6c0.8,0.9,1.5,1.7,2.3,2.6l8.7,10l11.8,13.4c1.2,1.2,3.1,1.2,4.3,0
			s1.2-3.1,0-4.3l-19.5-22.2c-2.8-3.1-5.2-6.6-9.8-7.1c-3-0.3-6,0.8-8.1,3c-0.9,1-1.8,2-2.6,3l-8.9,10.2l-12,13.7
			c-1.1,1.2-1.1,3.1,0,4.3C370.2,318.4,372.1,318.4,373.3,317.2C373.2,317.2,373.3,317.2,373.3,317.2L373.3,317.2z"/>
		<path class="st1" d="M416.1,296.6l-2,2.3l-2,2.3l-0.5-0.5l-1.8-2l2-2.3l2-2.3L416.1,296.6z"/>
		<path class="st1" d="M406,308.2l-2,2.3l-2,2.3l-0.5-0.5l-1.8-2l2-2.3l2-2.3L406,308.2z"/>
		<path class="st1" d="M395.8,296.6l-2,2.3l-2,2.3l-0.5-0.5l-1.8-2l2-2.3l2-2.3L395.8,296.6z"/>
	</g>
	<g id="Laag_3">
		<g id="XMLID_9_">
			<path id="XMLID_17_" class="st2" d="M378.6,253.2c-3.3-2.1-8.4-0.5-11.5,4c-3.6,5.2-17.7,16.7-17.9,21.4h0.1
				c0.2,0.1,0.4,0.4,0.6,0.5s0.4,0.3,0.6,0.5s0.3,0.4,0.5,0.6s0.5,0.3,0.6,0.5c0.2,0.2,0.1,0.5,0.3,0.8c0.1,0.2,0.5,0.3,0.6,0.6
				c0.1,0.2,0.1,0.4,0.1,0.6h0.1c1.1-1.5,7.4-3,10.5-5c-0.3-2.8,1.4-5.8,2.7-9.7c0.8-2.2,3.5-6.1,2.9-6.3c-0.5-0.2-0.2-1.1,0.9-0.9
				s-1.7,5.2-1.5,5.7c0.4-1.4,4.5-3.7,4.7-3.1c1.2,0.9-3.7,3-4.9,4.8c-1.6,2.6-3.5,6.3-4.7,9.4c-0.7,3.4-1,7.2-0.3,10.5
				c0.1,0,0.3-0.1,0.3-0.2c0.2-0.2,0.3-0.5,0.6-0.7c0.2-0.2,0.6-0.2,0.9-0.4c0.2-0.2,0-0.9,0.3-1.1c0.2-0.2,0.8,0.1,1.1-0.1
				c0.3-0.2,0.5-0.4,0.8-0.5c0.3-0.2,0.3-0.7,0.6-0.8c0.3-0.1,0.8,0.2,1.1,0.1c0.3-0.1,0.4-0.7,0.6-0.8c0.3-0.1,0.7,0,0.9-0.1
				c0.3-0.1,0.5-0.4,0.8-0.5s0.5-0.3,0.8-0.4s0.6-0.1,0.9-0.2s0.5-0.5,0.8-0.6s0.8,0.5,1.1,0.4c0.3-0.1,0.6-0.1,0.9-0.2
				s0.4-0.6,0.7-0.7c0.3-0.1,0.7,0.2,1,0.1s0.5-0.4,0.8-0.5s0.5-0.4,0.8-0.5s0.7,0.1,1,0.1c0.3-0.1,0.6,0,1,0
				c0.3-0.1,0.4-0.8,0.7-0.9c0.3-0.1,0.6-0.3,0.9-0.4s0.8,0.4,1.1,0.3c0.3-0.1,0.6-0.3,0.9-0.4s0.6-0.4,0.9-0.4
				c0.3-0.1,0.7,0.5,1.1,0.4c0.3-0.1,0.5-0.7,0.8-0.7c0.3-0.1,0.7,0.3,1,0.3c0.3-0.1,0.5-0.6,0.8-0.7s0.6-0.1,0.9-0.1s0.6,0.1,1,0
				c0.3,0,0.7,0.3,1,0.3s0.6-0.6,0.9-0.7c0.3,0,0.7,0.4,1,0.4s0.6-0.5,0.9-0.5s0.7,0.5,1,0.5s0.6-0.1,0.9-0.1s0.6-0.3,0.9-0.3
				s0.6,0,0.9,0s0.6,0.3,0.9,0.3s0.6-0.1,0.9-0.1s0.6,0.3,0.9,0.4s0.6,0,0.9,0.1c0.1,0,0.2,0,0.3,0
				C399.1,266.3,384.5,257,378.6,253.2z"/>
		</g>
		<path id="XMLID_6_" class="st3" d="M352.3,285.8c0.1-0.3-0.2-0.6-0.1-0.9s0.3-0.5,0.3-0.7c0-0.3,0.1-0.5,0.1-0.8s0.1-0.5,0-0.8
			c0-0.3-0.2-0.5-0.3-0.8c0-0.1,0-0.1,0-0.2c0-0.2-0.1-0.4-0.1-0.6c-0.1-0.3-0.4-0.4-0.6-0.6c-0.1-0.2-0.1-0.5-0.3-0.8
			c-0.2-0.2-0.4-0.3-0.6-0.5s-0.3-0.4-0.5-0.6s-0.4-0.4-0.6-0.5s-0.4-0.4-0.6-0.5h-0.1c-0.2,0-0.5,0.2-0.8,0.1s-0.4-0.7-0.7-0.7
			c-0.3,0-0.6,0.6-0.9,0.6s-0.6-0.5-0.8-0.5c-0.3,0-0.6,0.1-0.8,0.2c-0.3,0.1-0.5,0.3-0.7,0.4c-0.3,0.1-0.3,0.5-0.6,0.7
			c-0.2,0.1-0.8-0.2-1,0s-0.1,0.7-0.3,0.9c-0.2,0.2-0.2,0.5-0.3,0.7c-0.2,0.2-0.6,0.2-0.7,0.4c-0.1,0.2-0.3,0.4-0.4,0.7
			c-0.1,0.2-0.4,0.5-0.5,0.7c-0.1,0.3,0.4,0.6,0.3,0.9c0,0.3-0.4,0.5-0.4,0.8s-0.1,0.6,0,0.8c0,0.3,0.1,0.6,0.1,0.8
			c0.1,0.3,0.4,0.4,0.5,0.7c0.1,0.3,0.5,0.3,0.6,0.6c0.1,0.2-0.1,0.7,0.1,0.9c0.2,0.2,0.2,0.6,0.4,0.8c0.2,0.2,0.8-0.1,1,0.1
			s0.2,0.7,0.4,0.8c0.2,0.1,0.7-0.2,1-0.1c0.2,0.1,0.4,0.3,0.7,0.4c0.3,0.1,0.5,0.2,0.8,0.2s0.5,0.3,0.8,0.3s0.6,0.2,0.8,0.2
			c0.3,0,0.4-0.7,0.7-0.8c0.3-0.1,0.6,0.2,0.9,0.1s0.6-0.1,0.8-0.3c0.2-0.1,0.5-0.2,0.7-0.4c0.2-0.2,0.1-0.7,0.3-0.9
			c0.2-0.2,0.5-0.3,0.6-0.5c0.2-0.2,0.7-0.2,0.8-0.5C352.3,286.5,352.2,286.1,352.3,285.8z M350.7,287.4c-0.1,0.2-0.5,0.3-0.7,0.4
			s-0.5,0.2-0.7,0.3c-0.2,0.1-0.6-0.2-0.8-0.1c-0.2,0.1-0.4,0.8-0.6,0.8s-0.5-0.2-0.8-0.2s-0.5-0.2-0.7-0.3c-0.2,0-0.5-0.1-0.7-0.2
			s-0.4-0.3-0.6-0.4s-0.7,0.3-0.9,0.2c-0.2-0.1-0.2-0.7-0.4-0.8c-0.2-0.2-0.8,0.1-0.9,0c-0.2-0.2-0.2-0.6-0.3-0.8
			c-0.1-0.2,0.1-0.7,0-0.9c-0.1-0.2-0.5-0.3-0.6-0.5s-0.4-0.4-0.5-0.7c-0.1-0.3-0.1-0.6-0.1-0.8c0-0.3,0.1-0.6,0.1-0.8
			c0-0.3,0.3-0.5,0.4-0.8c0-0.3-0.3-0.6-0.3-0.9c0-0.5,0.6-0.3,0.7-0.6c0.1-0.2,0.1-0.6,0.2-0.8c0.1-0.1,0.3,0.1,0.3,0.2
			c-0.1,0.3,0.2,0.5,0.1,0.8c0,0.3-0.4,0.5-0.4,0.8s-0.1,0.6-0.1,0.8c0,0.3,0,0.6,0.1,0.8c0.1,0.3,0.4,0.4,0.5,0.7
			c0.1,0.2,0.4,0.3,0.6,0.5c0.1,0.2-0.1,0.7,0,0.9c0.1,0.2,0.1,0.6,0.3,0.8c0.2,0.2,0.7-0.1,0.9,0c0.2,0.2,0.1,0.7,0.4,0.8
			c0.2,0.1,0.7-0.3,0.9-0.2c0.2,0.1,0.4,0.3,0.6,0.4s0.4,0.2,0.7,0.2c0.2,0,0.5,0.3,0.7,0.3s0.5,0.2,0.8,0.2c0.2,0,0.4-0.7,0.6-0.8
			c0.2-0.1,0.6,0.2,0.8,0.1C350.5,286.7,351.1,286.8,350.7,287.4z"/>
		<path id="XMLID_3_" class="st3" d="M405.3,286.4c0.1-0.3,0.3-0.6,0.4-0.9c0-0.3,0-0.7,0-1s0.6-0.6,0.6-0.9s-0.3-0.7-0.3-1
			s-0.6-0.6-0.6-0.9c0-0.4,0.1-0.8,0-1c0.2-0.3,0.8-0.5,0.9-0.7c0.1-0.3-0.3-0.7-0.4-1s-0.2-0.5-0.5-0.8c-0.2-0.2-0.4-0.5-0.7-0.6
			c-0.3-0.1-0.5-0.3-0.8-0.4c-0.2-0.1-0.5,0.1-0.7,0.1c-0.1,0-0.2,0-0.3,0c-0.3-0.1-0.6,0-0.9-0.1s-0.6-0.3-0.9-0.4
			c-0.3,0-0.6,0.1-0.9,0.1s-0.6-0.3-0.9-0.3s-0.6,0-0.9,0s-0.6,0.3-0.9,0.3s-0.6,0.1-0.9,0.1s-0.6-0.5-1-0.5c-0.3,0-0.6,0.5-0.9,0.5
			s-0.7-0.4-1-0.4s-0.6,0.6-0.9,0.7c-0.3,0-0.7-0.3-1-0.3s-0.6-0.1-1,0c-0.3,0-0.6,0-0.9,0.1c-0.3,0-0.5,0.6-0.8,0.7s-0.7-0.4-1-0.3
			s-0.5,0.7-0.8,0.7c-0.3,0.1-0.7-0.5-1.1-0.4c-0.3,0.1-0.6,0.4-0.9,0.4c-0.3,0.1-0.6,0.3-0.9,0.4s-0.8-0.4-1.1-0.3
			c-0.3,0.1-0.6,0.3-0.9,0.4s-0.4,0.8-0.7,0.9c-0.3,0.1-0.7,0-1,0c-0.3,0.1-0.7-0.1-1-0.1c-0.3,0.1-0.5,0.4-0.8,0.5
			s-0.5,0.4-0.8,0.5s-0.7-0.2-1-0.1s-0.5,0.6-0.7,0.7c-0.3,0.1-0.6,0.1-0.9,0.2s-0.8-0.5-1.1-0.4c-0.3,0.1-0.5,0.5-0.8,0.6
			s-0.6,0.1-0.9,0.2s-0.6,0.3-0.8,0.4c-0.3,0.1-0.5,0.4-0.8,0.5s-0.7,0-0.9,0.1c-0.3,0.1-0.4,0.7-0.6,0.8c-0.3,0.1-0.8-0.2-1.1-0.1
			c-0.3,0.1-0.4,0.6-0.6,0.8c-0.3,0.2-0.5,0.4-0.8,0.5c-0.3,0.2-0.8-0.1-1.1,0.1c-0.3,0.2-0.1,0.9-0.3,1.1c-0.2,0.2-0.7,0.2-0.9,0.4
			c-0.2,0.2-0.4,0.5-0.6,0.7c-0.1,0.1-0.2,0.1-0.3,0.2c-0.2,0.1-0.5,0.1-0.6,0.3c-0.2,0.3,0.2,0.8,0.1,1.1c-0.1,0.3-0.4,0.5-0.4,0.8
			c-0.1,0.3-0.5,0.5-0.5,0.8s-0.2,0.6-0.1,0.9c0,0.3-0.1,0.7,0,1s0.3,0.6,0.5,0.9c0.1,0.3,0.6,0.4,0.7,0.7c0.1,0.3,0.4,0.4,0.6,0.7
			c0.1,0.3-0.2,0.9-0.1,1.1c0.2,0.2,0.7,0.2,0.9,0.4c0.2,0.2,0.1,0.8,0.3,1c0.2,0.2,0.8,0,1,0.2s0.4,0.5,0.6,0.7
			c0.3,0.1,0.8-0.2,1-0.1c0.3,0.1,0.5,0.6,0.8,0.7c0.8-0.3,0.5-0.6,0.7-0.9s0.3-0.7,0.6-0.7c0.6,0,0.3-0.5,0.6-0.7
			c0.2-0.2,0.8-0.6,0.9-0.9c0.3-0.4-0.1-1,0.2-1.1c0.3-0.1,0.5-0.4,0.8-0.6c0.3-0.1,0.7-0.1,1-0.2s0.2-0.6,0.5-0.7s0.6-0.1,0.9-0.2
			s0.7,0.1,1,0s0.5-0.4,0.9-0.5c0.3-0.1,0.6-0.2,0.9-0.3c0.3-0.1,0.7,0.1,1,0s0.4-1.3,0.7-1.4c0.3-0.1,0.7,0.1,1,0s0.7,0,1-0.1
			s0.5-0.6,0.8-0.7s0.5-0.4,0.9-0.5c0.3-0.1,0.8,0.4,1.1,0.3c0.3-0.1,0.5-0.6,0.8-0.6c0.3-0.1,0.7,0.1,1,0.1c0.3-0.1,0.7,0,1-0.1
			s0.7,0,1-0.1s0.6-0.3,0.9-0.4s0.6-0.4,0.9-0.4c0.3-0.1,0.7,0.2,1,0.2c0.3-0.1,0.5-0.8,0.8-0.8c0.3-0.1,0.7,0.3,1,0.2
			c0.3-0.1,0.7,0.1,1,0.1c0.3-0.1,0.6-0.3,0.9-0.4s1.2,0.5,1.5,0.5c0.3-0.1,0.7,0.9,1,0.8c0.3,0,0.6-0.5,0.9-0.5s0.8,0.2,1.1,0.2
			c0.3,0,0.7-0.2,1-0.2s0.7,0.4,1,0.4s0.7-0.1,1,0s0.5,0.5,0.8,0.7s0.4,0.5,0.6,0.8c0.3,0.2,0.9-0.1,1.2-0.3
			c0.2-0.1,0.4-0.5,0.5-0.8s0.2-0.6,0.3-0.9C405.1,287,405.2,286.7,405.3,286.4z M403.8,287.7c-0.3,0.1-0.8,0.4-1.2,0.3
			c-0.2-0.2-0.3-0.6-0.6-0.8c-0.3-0.2-0.4-0.6-0.8-0.7c-0.3-0.1-0.7,0-1,0s-0.6-0.4-1-0.4c-0.3,0-0.6,0.2-1,0.2
			c-0.3,0-0.8-0.2-1.1-0.2c-0.3,0-0.6,0.4-0.9,0.5c-0.3,0-0.7-0.9-1-0.8s-1.1-0.5-1.5-0.5c-0.3,0.1-0.6,0.3-0.9,0.4s-0.7-0.1-1-0.1
			c-0.3,0.1-0.7-0.3-1-0.2c-0.3,0.1-0.5,0.8-0.8,0.8c-0.3,0.1-0.7-0.2-1-0.2c-0.3,0.1-0.6,0.4-0.9,0.4c-0.3,0.1-0.6,0.3-0.9,0.4
			s-0.6,0-1,0.1c-0.3,0.1-0.7,0-1,0.1s-0.7-0.1-1-0.1c-0.3,0.1-0.5,0.6-0.8,0.6c-0.3,0.1-0.8-0.4-1.1-0.3c-0.3,0.1-0.6,0.4-0.9,0.5
			s-0.5,0.7-0.8,0.7c-0.3,0.1-0.7,0-1,0.1s-0.7-0.1-1,0s-0.4,1.3-0.7,1.4c-0.3,0.1-0.7,0-1,0c-0.3,0.1-0.6,0.2-0.9,0.3
			c-0.3,0.1-0.6,0.4-0.9,0.5s-0.7,0-1,0c-0.3,0.1-0.6,0.1-0.9,0.2s-0.2,0.6-0.5,0.7s-0.7,0.1-1,0.2s-0.6,0.4-0.8,0.6
			c-0.3,0.1,0.1,0.7-0.2,1.1c-0.2,0.3-0.7,0.7-0.9,0.9c-0.2,0.2,0,0.8-0.6,0.7c-0.3,0-0.4,0.4-0.6,0.7c-0.2,0.2,0.1,0.6-0.7,0.9
			c-0.3-0.1-0.5-0.6-0.8-0.7s-0.8,0.2-1,0.1c-0.3-0.1-0.2-0.8-0.5-1c-0.2-0.2-0.4,0-0.7-0.2c-0.2-0.2-0.1-0.8-0.3-1
			c-0.2-0.2-0.7-0.2-0.9-0.4c-0.2-0.2-0.3-0.9-0.3-1.2c0-0.5-0.6-0.3-0.6-0.8c-0.1-0.3,0.1-0.3-0.1-0.8c-0.3-0.7,0.5-1.7,0.7-1.4
			c0.1,0.3,0.5,0.4,0.5,0.8c0,0.3,0.4,0.5,0.6,0.7c0.1,0.3,0,0.7,0.2,1c0.2,0.2-0.2,1.1,0.1,1.2c0.9,0.2,0.9,1.1,1.1,1.2
			c0.3,0.1,0.8-0.2,1-0.1c0.3,0.1,0.5,0.6,0.8,0.7c0.8-0.3,0.5-0.6,0.7-0.9s0.3-0.7,0.6-0.7c0.6,0,0.3-0.5,0.6-0.7
			c0.2-0.2,0.8-0.6,0.9-0.9c0.3-0.4-0.1-1,0.2-1.1c0.3-0.1,0.5-0.4,0.8-0.6c0.3-0.1,0.7-0.1,1-0.2s0.2-0.6,0.5-0.7s0.6-0.1,0.9-0.2
			s0.7,0,1,0c0.3-0.1,0.5-0.4,0.9-0.5c0.3-0.1,0.6-0.2,0.9-0.3c0.3-0.1,0.7,0.1,1,0s0.4-1.3,0.7-1.4c0.3-0.1,0.7,0.1,1,0
			s0.7,0,1-0.1s0.5-0.6,0.8-0.7s0.5-0.4,0.9-0.5c0.3-0.1,0.8,0.4,1.1,0.3c0.3-0.1,0.5-0.6,0.8-0.6c0.3-0.1,0.7,0.1,1,0.1
			c0.3-0.1,0.7,0,1-0.1s0.7,0,1-0.1s0.6-0.3,0.9-0.4s0.6-0.4,0.9-0.4c0.3-0.1,0.7,0.2,1,0.2c0.3-0.1,0.5-0.8,0.8-0.8
			c0.3-0.1,0.7,0.3,1,0.2c0.3-0.1,0.7,0.1,1,0.1c0.3-0.1,0.6-0.3,0.9-0.4s1.2,0.5,1.5,0.5c0.3-0.1,0.7,0.9,1,0.8
			c0.3,0,0.6-0.5,0.9-0.5s0.8,0.2,1.1,0.2c0.3,0,0.7-0.2,1-0.2s0.7,0.4,1,0.4s0.7-0.1,1,0s0.5,0.5,0.8,0.7s0.4,0.5,0.6,0.8
			c0.3,0.2,0.9-0.2,1.2-0.3C405.2,285.1,404.7,287.3,403.8,287.7z"/>
	</g>
	<polygon class="st3" points="343.1,279.8 343.1,283 344.8,285.4 347.8,286.2 351.3,286.2 350.9,287.6 348.3,288.8 347.2,289.3 
		343.6,288.1 342.2,286.9 341.2,284.6 341.2,282.1 341.6,280.9 342.8,278.9 	"/>
	<path class="st3" d="M403.3,284.6c0.1,0,0.5,0.1,0.9,0.4c0.5,0.4,0.6,0.9,0.7,1.1c0.2,0.8,0,1.9-0.7,2.2c-0.5,0.2-0.8-0.1-2.4-0.6
		c-1.2-0.4-1.8-0.6-2.3-0.7c-1.7-0.2-2.3,0.5-3.6,0c-0.6-0.2-0.5-0.4-1.1-0.6c-0.5-0.2-1.5-0.6-3.6-0.2c-2,0.4-2,0.9-4.1,1.4
		c-1.5,0.4-1.5,0.1-3.5,0.4c-0.4,0.1-2,0.4-4.1,1.2c-1.6,0.6-1.9,1-4,1.8c-1.8,0.7-2.2,1.1-2.5,0.9c-0.7-0.5-0.3-2.8,0.9-4.4
		c1.5-1.9,3.7-1.9,8.1-2.6c8.5-1.4,8-2.8,12.1-2.5C398.4,282.6,401.3,284.2,403.3,284.6z"/>
	<path class="st3" d="M363.9,288.8c2.1-2.4,6.3-3.8,9-2.1c0.2,0.1,2.1,1.3,2,2.7c-0.1,1.4-1.8,1.4-3.6,3.7c-1.4,1.8-1.1,2.8-2.3,3.4
		c-1.1,0.5-2.7,0.3-3.5-0.5c-0.6-0.6-0.3-0.9-1.1-2c-0.8-1.2-1.4-1.2-1.7-2C362.2,290.8,363.5,289.2,363.9,288.8z"/>
	<path class="st3" d="M373.9,284.9"/>
</g>
<g id="Laag_3_1_">
</g>
</svg>
